<?xml version="1.0" encoding="utf-8"?>
<!-- Generator: Adobe Illustrator 24.0.0, SVG Export Plug-In . SVG Version: 6.00 Build 0)  -->
<svg version="1.1" id="Capa_1" xmlns="http://www.w3.org/2000/svg" xmlns:xlink="http://www.w3.org/1999/xlink" x="0px" y="0px"
	 viewBox="0 0 274.2 94.5" style="enable-background:new 0 0 274.2 94.5;" xml:space="preserve">
<style type="text/css">
	.st0{fill:#FFFFFF;}
	.st1{fill:#F1F1F1;}
	.st2{fill:none;}
	.st3{fill:#E8E8E8;}
	.st4{fill:#D3D3D3;}
</style>
<path class="st0" d="M232.8,89.9h-26.6c-7.9,0-15-3.2-20.2-8.3c-5.3-5.2-8.5-12.4-8.5-20.4V34.6c0-7.1,2.6-13.6,6.8-18.6
	c5.3-6.2,13.2-10.2,22-10.2h26.6c8.5,0,16.2,3.7,21.5,9.6c4.5,5.1,7.3,11.8,7.3,19.1v26.6c0,9.1-4.2,17.2-10.8,22.5
	C245.8,87.5,239.6,89.9,232.8,89.9z"/>
<g>
	<path class="st0" d="M22.9,27.6c4.9,0,8.9,2.1,11.5,5.9l-4.9,4.1c-1.7-2.4-3.8-3.7-6.8-3.7c-4.5,0-7.3,3-7.3,7.4
		c0,4.6,3,7.6,7.7,7.6c2.5,0,4.6-0.9,5.9-2.4v-1.3h-6.2v-6H36v8.4c-1.3,2.2-3,4-5.3,5.4c-2.3,1.3-4.9,2-7.8,2
		c-8,0.1-14.6-6.1-14.5-13.8C8.3,33.8,14.9,27.5,22.9,27.6z"/>
	<path class="st0" d="M52.7,27.6c7.8-0.2,14.6,6.2,14.4,13.8c0.2,7.7-6.7,13.9-14.4,13.8c-7.8,0.1-14.5-6.1-14.4-13.8
		C38.1,33.8,44.8,27.5,52.7,27.6z M52.7,34c-4.3,0-7.3,3-7.3,7.4c0,2.2,0.7,4,2,5.4c1.3,1.3,3.1,2,5.3,2c4.1,0,7.3-3,7.3-7.4
		C60,37.1,56.8,34,52.7,34z"/>
	<path class="st0" d="M70.8,28.1h7v20.4h11v6.3h-18V28.1z"/>
	<path class="st0" d="M92.1,28.1h9.3c8.2-0.1,14.7,5.3,14.6,13.3c0.1,7.9-6.4,13.5-14.6,13.4h-9.3V28.1z M101.4,48.5
		c4.4,0,7.5-2.7,7.5-7.2c0-4.5-3.1-7-7.5-7h-2.3v14.1H101.4z"/>
	<path class="st0" d="M119.7,28.1h18.5v6.3h-11.6v3.7h8.2v5.8h-8.2v4.6h12v6.3h-19V28.1z"/>
	<path class="st0" d="M166.4,28.1v27.2h-2.2l-14.5-14v13.5h-7V27.6h2.2l14.5,13.8V28.1H166.4z"/>
</g>
<g>
	<path class="st1" d="M92.7,62h8.8v3h-5.5v1.8h3.9v2.8h-3.9v2.2h5.8v3h-9.1V62z"/>
	<path class="st1" d="M110.1,74.8l-2.2-3.6l-2.2,3.6h-3.7l4.1-6.5l-3.9-6.3h3.7l2,3.4l2-3.4h3.7l-3.9,6.3l4.1,6.5H110.1z"/>
	<path class="st1" d="M114.5,62h5c2.8,0,4.9,1.7,4.9,4.4c0,2.6-2.1,4.4-4.9,4.4h-1.7v4h-3.3V62z M119.5,67.9c0.9,0,1.5-0.6,1.5-1.5
		c0-0.9-0.6-1.5-1.5-1.5h-1.7v3H119.5z"/>
	<path class="st1" d="M133.1,74.8l-2.9-4h-1.4v4h-3.3V62h5c2.8,0,4.9,1.7,4.9,4.4c0,1.6-0.8,2.9-2,3.6l3.4,4.7H133.1z M128.8,67.9
		h1.7c0.9,0,1.5-0.6,1.5-1.5c0-0.9-0.6-1.5-1.5-1.5h-1.7V67.9z"/>
	<path class="st1" d="M137.4,62h8.8v3h-5.5v1.8h3.9v2.8h-3.9v2.2h5.8v3h-9.1V62z"/>
	<path class="st1" d="M149.2,70.4c0.8,1,1.5,1.6,2.8,1.6c0.9,0,1.3-0.3,1.3-0.9c0-0.6-0.3-0.7-1.3-1.2l-1.3-0.6
		c-2.1-0.9-3.2-2.1-3.2-3.8c0-2.3,1.9-3.8,4.5-3.8c2.1,0,3.6,1,4.4,2.6l-2.2,1.7c-0.6-0.9-1.2-1.4-2.1-1.4c-0.7,0-1.1,0.3-1.1,0.8
		c0,0.5,0.3,0.7,1.1,1l1.5,0.6c2.2,0.9,3.3,2,3.3,3.8c0,2.5-2,4-4.7,4c-2.3,0-4.2-1.1-5.1-2.9L149.2,70.4z"/>
	<path class="st1" d="M159.2,70.4c0.8,1,1.5,1.6,2.8,1.6c0.9,0,1.3-0.3,1.3-0.9c0-0.6-0.3-0.7-1.3-1.2l-1.3-0.6
		c-2.1-0.9-3.2-2.1-3.2-3.8c0-2.3,1.9-3.8,4.5-3.8c2.1,0,3.6,1,4.4,2.6l-2.2,1.7c-0.6-0.9-1.2-1.4-2.1-1.4c-0.7,0-1.1,0.3-1.1,0.8
		c0,0.5,0.3,0.7,1.1,1l1.5,0.6c2.2,0.9,3.3,2,3.3,3.8c0,2.5-2,4-4.7,4c-2.3,0-4.2-1.1-5.1-2.9L159.2,70.4z"/>
</g>
<g>
	<path class="st0" d="M266.2,16c-2.7,0.1-5.1-2.3-5-5.1c-0.1-2.7,2.3-5.1,5-5.1c2.7-0.1,5.1,2.4,5,5.1
		C271.2,13.7,268.8,16.1,266.2,16z M266.2,7.1c-2.1,0-3.7,1.7-3.7,3.8c0,2.2,1.6,3.8,3.7,3.8c2,0,3.7-1.7,3.7-3.8
		C269.9,8.8,268.2,7.1,266.2,7.1z M268.3,13H267l-0.9-1.2h-0.4V13h-1.1v-4h1.7c0.9,0,1.6,0.6,1.6,1.4c0,0.5-0.2,0.9-0.6,1.2
		L268.3,13z M265.7,10.8h0.5c0.3,0,0.5-0.2,0.5-0.4c0-0.3-0.2-0.4-0.5-0.4h-0.5V10.8z"/>
</g>
<path class="st2" d="M228.1,54.9l0.2,0.2c0.1-0.1,0.1-0.1,0.2-0.2H228.1z"/>
<path class="st3" d="M219.8,36c2.6,0,5,0.9,7,2.4h15c-3.6-8.6-12.1-14.7-22-14.7c-6.4,0-12.1,2.5-16.4,6.6l8.7,8.7
	C214.2,37.1,216.9,36,219.8,36z"/>
<path class="st4" d="M237.1,63.8l-8.7-8.7c-2.1,2.3-5.1,3.8-8.5,3.8c-6.3,0-11.5-5.1-11.5-11.5c0-3.4,1.5-6.4,3.8-8.5l-8.7-8.7
	c-4.5,4.3-7.4,10.4-7.4,17.2c0,11.4,8,20.9,18.8,23.2l5.1,7.4l5.1-7.4l0,0C229.7,69.6,233.9,67.2,237.1,63.8z"/>
<path class="st3" d="M228.5,54.9c-0.1,0.1-0.1,0.1-0.2,0.2l8.7,8.7c4.1-4.3,6.6-10,6.6-16.4c0-0.6,0-1.1-0.1-1.7h-18.3v0h-5.9v0.5
	l8.7,8.7H228.5z"/>
<polygon class="st0" points="228.1,54.9 219.4,46.2 219.4,54.9 "/>
</svg>
